<svg  data-v-0dd9719b=""  version="1.0" xmlns="http://www.w3.org/2000/svg" xmlns:xlink="http://www.w3.org/1999/xlink"
  width="100px" height="100px" viewBox="0 0 340.000000 250.000000" preserveAspectRatio="xMidYMid meet"
  color-interpolation-filters="sRGB" style="margin: auto;">
  <rect data-v-0dd9719b="" x="0" y="0" width="100%" height="100%" fill-opacity="0" class="watermarklayer">
  </rect>
  <g data-v-0dd9719b="" fill="white" class="iconlinesvg-g iconlinesvg"
    transform="translate(67.69525146484375,90.78601455688477)">
    <g class="tp-name" transform="translate(0,0)">
      <g transform="translate(0, 0)">
        <g>
          <g class="imagesvg">
            <g>
              <rect fill-opacity="0" stroke-width="2" x="0" y="0" width="37.973582700175335" height="54.24797528596477"
                class="image-rect">
              </rect>
              <svg filter="url(#colors1514281511)" x="0" y="0" width="37.973582700175335" height="54.24797528596477"
                filtersec="colorsf5864443905" class="image-svg-svg primary" style="overflow: visible;">
                <svg xmlns="http://www.w3.org/2000/svg" viewBox="5 2 14 20" x="0px" y="0px">
                  <path fill-rule="evenodd" clip-rule="evenodd"
                    d="M6 2C5.44772 2 5 2.44772 5 3V21C5 21.5523 5.44772 22 6 22C6.55228 22 7 21.5523 7 21L7 14H13C16.3137 14 19 11.3137 19 8C19 4.68629 16.3137 2 13 2H6ZM7 12V4H13C15.2091 4 17 5.79086 17 8C17 10.2091 15.2091 12 13 12H7Z">
                  </path>
                </svg>
              </svg>
              <defs>
                <filter id="colors1514281511">
                  <feColorMatrix type="matrix"
                    values="0 0 0 0 0.19921875  0 0 0 0 0.19921875  0 0 0 0 0.19921875  0 0 0 1 0"
                    class="icon-fecolormatrix">
                  </feColorMatrix>
                </filter>
                <filter id="colorsf5864443905">
                  <feColorMatrix type="matrix"
                    values="0 0 0 0 0.99609375  0 0 0 0 0.99609375  0 0 0 0 0.99609375  0 0 0 1 0"
                    class="icon-fecolormatrix">
                  </feColorMatrix>
                </filter>
                <filter id="colorsb7874311731">
                  <feColorMatrix type="matrix" values="0 0 0 0 0  0 0 0 0 0  0 0 0 0 0  0 0 0 1 0"
                    class="icon-fecolormatrix">
                  </feColorMatrix>
                </filter>
              </defs>
            </g>
          </g>
        </g>
      </g>
      <g transform="translate(41, 5.862736912415464)">
        <g data-gra="path-name" fill="#333" transform="scale(1)">
          <path
            d="M15.84-18.68C19.34-18.68 20.28-15.44 19.50-11.42C18.75-7.55 16.20-4.19 13.00-4.19C10.02-4.19 8.58-7.62 9.32-11.47C10.02-15.04 12.43-18.68 15.84-18.68ZM12.12 0.53C19.55 0.53 23.78-5.95 24.85-11.47C25.80-16.29 24.76-23.40 16.77-23.40C8.98-23.40 4.90-16.26 3.98-11.45C2.92-6.06 4.57 0.53 12.12 0.53Z"
            transform="translate(-3.68897329475534, 33.18059614260667)">
          </path>
        </g>
      </g>
      <g transform="translate(66, 5.862736912415464)">
        <g data-gra="path-name" fill="#333" transform="scale(1)">
          <path
            d="M1.83 5.09C3.89 8.12 7.07 9.34 11.00 9.34C19.46 9.34 22.37 3.05 23.75-4.10L27.44-23.00L22.85-23.00L21.80-19.76C20.47-21.69 18.62-23.42 15.99-23.42C8.88-23.42 4.86-16.50 3.75-10.79C2.65-5.15 5.13 0.27 11.15 0.27C13.91 0.27 16.05-1.12 18.28-3.01C17.30 0.84 16.18 4.54 11.55 4.54C9.24 4.54 7.20 3.47 5.89 1.83ZM19.32-8.35C17.84-6.06 15.44-4.42 12.88-4.42C9.36-4.42 8.88-8.31 9.36-10.84C10.04-14.24 11.99-18.49 16.10-18.49C18.37-18.49 19.95-16.58 20.51-14.58Z"
            transform="translate(-1.830508474576271, 33.18059614260667)">
          </path>
        </g>
      </g>
      <g transform="translate(95, 5.862736912415464)">
        <g data-gra="path-name" fill="#333" transform="scale(1)">
          <path d="M16.35-12.90L17.27-17.63L5.68-17.63L4.76-12.90Z"
            transform="translate(-4.75511396843951, 33.18059614260667)">
          </path>
        </g>
      </g>
      <g transform="translate(111, 5.862736912415464)">
        <g data-gra="path-name" fill="#333" transform="scale(1)">
          <path
            d="M15.36 0C22.11 0 26.93-2.17 28.34-9.51C29.04-13.05 27.50-15.76 24.72-16.94C27.16-18.56 28.24-19.93 28.72-22.45C29.98-28.89 25.14-31.64 19.69-31.64L9.55-31.64L3.41 0ZM18.28-13.99C21.84-13.99 23.25-12.31 22.72-9.66C22.07-6.25 19.84-5.11 15.82-5.11L9.83-5.11L11.55-13.99ZM18.89-26.62C22.26-26.62 23.57-24.89 23.10-22.56C22.68-20.32 20.91-18.94 18.24-18.94L12.52-18.94L14.01-26.62Z"
            transform="translate(-3.4085330216247804, 33.18059614260667)">
          </path>
        </g>
      </g>
      <g transform="translate(140, 5.862736912415464)">
        <g data-gra="path-name" fill="#333" transform="scale(1)">
          <path
            d="M9.34 0.29C10.31 0.29 11.24 0.08 12.83-0.46L12.96-4.36C11.80-4.21 11.38-4.06 10.84-4.06C9.85-4.06 9.38-4.46 9.66-5.89L14.98-33.18L9.32-31.22L4.40-5.89C3.79-2.84 4.00 0.29 9.34 0.29Z"
            transform="translate(-4.159107375636845, 33.18059614260667)">
          </path>
        </g>
      </g>
      <g transform="translate(154, 5.862736912415464)">
        <g data-gra="path-name" fill="#333" transform="scale(1)">
          <path
            d="M15.84-18.68C19.34-18.68 20.28-15.44 19.50-11.42C18.75-7.55 16.20-4.19 13.00-4.19C10.02-4.19 8.58-7.62 9.32-11.47C10.02-15.04 12.43-18.68 15.84-18.68ZM12.12 0.53C19.55 0.53 23.78-5.95 24.85-11.47C25.80-16.29 24.76-23.40 16.77-23.40C8.98-23.40 4.90-16.26 3.98-11.45C2.92-6.06 4.57 0.53 12.12 0.53Z"
            transform="translate(-3.68897329475534, 33.18059614260667)">
          </path>
        </g>
      </g>
      <g transform="translate(179, 5.862736912415464)">
        <g data-gra="path-name" fill="#333" transform="scale(1)">
          <path
            d="M1.83 5.09C3.89 8.12 7.07 9.34 11.00 9.34C19.46 9.34 22.37 3.05 23.75-4.10L27.44-23.00L22.85-23.00L21.80-19.76C20.47-21.69 18.62-23.42 15.99-23.42C8.88-23.42 4.86-16.50 3.75-10.79C2.65-5.15 5.13 0.27 11.15 0.27C13.91 0.27 16.05-1.12 18.28-3.01C17.30 0.84 16.18 4.54 11.55 4.54C9.24 4.54 7.20 3.47 5.89 1.83ZM19.32-8.35C17.84-6.06 15.44-4.42 12.88-4.42C9.36-4.42 8.88-8.31 9.36-10.84C10.04-14.24 11.99-18.49 16.10-18.49C18.37-18.49 19.95-16.58 20.51-14.58Z"
            transform="translate(-1.830508474576271, 33.18059614260667)">
          </path>
        </g>
      </g>
    </g>
    <g data-gra="path-slogan" fill-rule="" class="tp-slogan" fill="#333" transform="translate(5,60.24797439575195)">
      <rect x="0" height="1" y="3.5900001525878906" width="25.719749450683594">
      </rect>
      <rect height="1" y="3.5900001525878906" width="25.719749450683594" x="168.8897476196289">
      </rect>
      <g transform="translate(28.719749450683594,0)">
        <g transform="scale(1)">
          <path
            d="M1.08-7.87L1.08 0L2.08 0L2.08-3.12L3.49-3.12C3.92-3.12 4.32-3.17 4.67-3.27C5.03-3.37 5.34-3.52 5.59-3.72C5.85-3.92 6.05-4.17 6.19-4.48C6.33-4.78 6.40-5.14 6.40-5.56C6.40-5.99 6.33-6.35 6.19-6.65C6.05-6.94 5.85-7.18 5.60-7.36C5.35-7.54 5.04-7.67 4.68-7.75C4.32-7.83 3.92-7.87 3.49-7.87ZM3.37-3.94L2.08-3.94L2.08-7.07L3.37-7.07C4.05-7.07 4.56-6.96 4.90-6.74C5.23-6.52 5.40-6.12 5.40-5.56C5.40-5.00 5.23-4.59 4.90-4.33C4.57-4.07 4.06-3.94 3.37-3.94ZM10.90 0.14C11.39 0.14 11.85 0.05 12.26-0.14C12.67-0.34 13.03-0.61 13.33-0.97C13.63-1.32 13.86-1.75 14.02-2.26C14.19-2.77 14.27-3.34 14.27-3.97C14.27-4.60 14.19-5.16 14.02-5.66C13.86-6.16 13.63-6.58 13.33-6.93C13.03-7.28 12.67-7.55 12.26-7.73C11.85-7.92 11.39-8.02 10.90-8.02C10.40-8.02 9.95-7.92 9.53-7.74C9.12-7.56 8.77-7.29 8.47-6.94C8.18-6.59 7.95-6.17 7.78-5.67C7.62-5.17 7.54-4.60 7.54-3.97C7.54-3.34 7.62-2.77 7.78-2.26C7.95-1.75 8.18-1.32 8.47-0.97C8.77-0.61 9.12-0.34 9.53-0.14C9.95 0.05 10.40 0.14 10.90 0.14ZM10.90-0.73C10.54-0.73 10.23-0.81 9.94-0.96C9.66-1.11 9.41-1.33 9.21-1.61C9.01-1.90 8.85-2.24 8.74-2.63C8.62-3.03 8.57-3.48 8.57-3.97C8.57-4.46 8.62-4.90 8.74-5.29C8.85-5.68 9.01-6.02 9.21-6.29C9.41-6.56 9.66-6.77 9.94-6.92C10.23-7.07 10.54-7.14 10.90-7.14C11.25-7.14 11.57-7.07 11.85-6.92C12.13-6.77 12.38-6.56 12.58-6.29C12.79-6.02 12.94-5.68 13.06-5.29C13.17-4.90 13.22-4.46 13.22-3.97C13.22-3.48 13.17-3.03 13.06-2.63C12.94-2.24 12.79-1.90 12.58-1.61C12.38-1.33 12.13-1.11 11.85-0.96C11.57-0.81 11.25-0.73 10.90-0.73ZM15.50-3.94C15.50-3.30 15.59-2.72 15.77-2.21C15.94-1.71 16.19-1.28 16.50-0.93C16.81-0.58 17.18-0.32 17.62-0.13C18.05 0.05 18.52 0.14 19.04 0.14C19.57 0.14 20.05 0.06 20.47-0.11C20.89-0.29 21.22-0.50 21.48-0.77L21.48-4.08L18.90-4.08L18.90-3.25L20.57-3.25L20.57-1.20C20.41-1.06 20.20-0.94 19.95-0.86C19.70-0.77 19.43-0.73 19.15-0.73C18.73-0.73 18.35-0.81 18.03-0.96C17.71-1.11 17.43-1.33 17.21-1.61C16.99-1.89 16.83-2.23 16.71-2.62C16.59-3.02 16.54-3.46 16.54-3.96C16.54-4.45 16.60-4.89 16.72-5.28C16.85-5.67 17.02-6.01 17.24-6.28C17.47-6.56 17.74-6.77 18.06-6.92C18.38-7.07 18.74-7.14 19.14-7.14C19.54-7.14 19.87-7.07 20.13-6.93C20.39-6.79 20.62-6.62 20.82-6.41L21.38-7.04C21.15-7.28 20.85-7.51 20.49-7.71C20.13-7.91 19.67-8.02 19.13-8.02C18.60-8.02 18.12-7.92 17.68-7.73C17.24-7.55 16.85-7.28 16.53-6.92C16.21-6.57 15.95-6.14 15.77-5.64C15.59-5.14 15.50-4.57 15.50-3.94ZM22.91-3.94C22.91-3.30 23.00-2.72 23.17-2.21C23.35-1.71 23.59-1.28 23.90-0.93C24.22-0.58 24.59-0.32 25.02-0.13C25.45 0.05 25.93 0.14 26.45 0.14C26.98 0.14 27.45 0.06 27.87-0.11C28.29-0.29 28.63-0.50 28.88-0.77L28.88-4.08L26.30-4.08L26.30-3.25L27.97-3.25L27.97-1.20C27.81-1.06 27.61-0.94 27.35-0.86C27.10-0.77 26.84-0.73 26.56-0.73C26.13-0.73 25.76-0.81 25.43-0.96C25.11-1.11 24.84-1.33 24.62-1.61C24.40-1.89 24.23-2.23 24.11-2.62C24.00-3.02 23.94-3.46 23.94-3.96C23.94-4.45 24.00-4.89 24.13-5.28C24.25-5.67 24.42-6.01 24.65-6.28C24.87-6.56 25.14-6.77 25.46-6.92C25.78-7.07 26.14-7.14 26.54-7.14C26.94-7.14 27.27-7.07 27.53-6.93C27.79-6.79 28.02-6.62 28.22-6.41L28.79-7.04C28.56-7.28 28.26-7.51 27.89-7.71C27.53-7.91 27.08-8.02 26.53-8.02C26.00-8.02 25.52-7.92 25.08-7.73C24.64-7.55 24.26-7.28 23.93-6.92C23.61-6.57 23.36-6.14 23.18-5.64C23.00-5.14 22.91-4.57 22.91-3.94ZM30.77-7.87L30.77 0L35.42 0L35.42-0.85L31.76-0.85L31.76-3.71L34.75-3.71L34.75-4.56L31.76-4.56L31.76-7.03L35.30-7.03L35.30-7.87ZM38.09-4.14L38.09-7.07L39.41-7.07C40.02-7.07 40.50-6.96 40.82-6.76C41.15-6.55 41.32-6.18 41.32-5.66C41.32-5.15 41.15-4.77 40.82-4.52C40.50-4.27 40.02-4.14 39.41-4.14ZM41.41 0L42.54 0L40.55-3.43C41.08-3.57 41.51-3.82 41.83-4.19C42.15-4.56 42.31-5.05 42.31-5.66C42.31-6.07 42.24-6.42 42.11-6.70C41.97-6.98 41.78-7.20 41.54-7.38C41.29-7.56 41.00-7.68 40.66-7.76C40.32-7.83 39.95-7.87 39.55-7.87L37.09-7.87L37.09 0L38.09 0L38.09-3.32L39.52-3.32ZM43.92-1.72L43.32-1.02C43.66-0.66 44.07-0.38 44.54-0.17C45.02 0.04 45.53 0.14 46.08 0.14C46.50 0.14 46.87 0.09 47.20-0.03C47.52-0.15 47.80-0.31 48.04-0.51C48.27-0.71 48.45-0.95 48.57-1.22C48.69-1.50 48.76-1.79 48.76-2.10C48.76-2.39 48.71-2.64 48.63-2.86C48.55-3.08 48.43-3.27 48.29-3.44C48.14-3.60 47.97-3.75 47.77-3.87C47.57-3.99 47.36-4.10 47.14-4.20L46.02-4.68C45.86-4.74 45.70-4.81 45.55-4.89C45.40-4.97 45.26-5.05 45.13-5.15C45.00-5.25 44.90-5.37 44.83-5.50C44.75-5.63 44.71-5.80 44.71-5.99C44.71-6.35 44.85-6.63 45.11-6.83C45.38-7.04 45.74-7.14 46.18-7.14C46.54-7.14 46.87-7.07 47.17-6.94C47.46-6.81 47.72-6.63 47.96-6.40L48.50-7.04C48.22-7.33 47.88-7.57 47.48-7.75C47.08-7.93 46.65-8.02 46.18-8.02C45.82-8.02 45.49-7.96 45.19-7.86C44.89-7.76 44.63-7.61 44.41-7.42C44.19-7.23 44.01-7.01 43.89-6.76C43.77-6.50 43.70-6.22 43.70-5.93C43.70-5.64 43.75-5.39 43.85-5.17C43.94-4.95 44.07-4.76 44.22-4.60C44.37-4.44 44.54-4.30 44.74-4.19C44.93-4.08 45.12-3.98 45.30-3.90L46.43-3.41C46.61-3.32 46.78-3.24 46.94-3.16C47.10-3.08 47.24-2.99 47.36-2.89C47.47-2.79 47.57-2.67 47.63-2.53C47.70-2.39 47.74-2.22 47.74-2.02C47.74-1.63 47.59-1.32 47.30-1.09C47.02-0.85 46.61-0.73 46.09-0.73C45.68-0.73 45.29-0.82 44.91-1.00C44.53-1.18 44.20-1.42 43.92-1.72ZM51.92-7.87L53.59 0L54.78 0L55.94-4.74C56.01-5.04 56.07-5.34 56.14-5.63C56.21-5.93 56.28-6.22 56.34-6.53L56.39-6.53C56.45-6.22 56.51-5.93 56.57-5.63C56.63-5.34 56.70-5.04 56.77-4.74L57.96 0L59.16 0L60.79-7.87L59.83-7.87L59.00-3.59C58.92-3.16 58.85-2.74 58.78-2.32C58.70-1.90 58.63-1.48 58.56-1.04L58.51-1.04C58.42-1.48 58.32-1.90 58.22-2.33C58.13-2.75 58.03-3.17 57.94-3.59L56.84-7.87L55.93-7.87L54.84-3.59C54.75-3.16 54.66-2.74 54.56-2.32C54.47-1.90 54.38-1.48 54.29-1.04L54.24-1.04C54.17-1.48 54.09-1.90 54.01-2.32C53.93-2.73 53.86-3.16 53.78-3.59L52.96-7.87ZM62.16-7.87L62.16 0L63.16 0L63.16-7.87ZM66.95-7.03L66.95 0L67.96 0L67.96-7.03L70.33-7.03L70.33-7.87L64.57-7.87L64.57-7.03ZM71.75-7.87L71.75 0L72.74 0L72.74-3.71L76.40-3.71L76.40 0L77.41 0L77.41-7.87L76.40-7.87L76.40-4.57L72.74-4.57L72.74-7.87ZM82.00-7.87L82.00 0L84.50 0C84.94 0 85.35-0.05 85.72-0.14C86.08-0.24 86.40-0.38 86.66-0.58C86.93-0.77 87.13-1.01 87.28-1.30C87.42-1.58 87.49-1.92 87.49-2.30C87.49-2.85 87.33-3.28 87.01-3.59C86.69-3.90 86.24-4.10 85.67-4.19L85.67-4.24C86.13-4.36 86.48-4.57 86.70-4.89C86.92-5.21 87.04-5.56 87.04-5.95C87.04-6.30 86.97-6.59 86.84-6.83C86.71-7.08 86.52-7.28 86.29-7.43C86.05-7.58 85.77-7.69 85.43-7.76C85.10-7.84 84.74-7.87 84.34-7.87ZM84.16-4.51L82.99-4.51L82.99-7.08L84.20-7.08C84.82-7.08 85.28-6.99 85.59-6.80C85.90-6.61 86.05-6.30 86.05-5.87C86.05-5.43 85.91-5.09 85.61-4.86C85.32-4.63 84.84-4.51 84.16-4.51ZM84.36-0.79L82.99-0.79L82.99-3.77L84.36-3.77C85.06-3.77 85.59-3.65 85.96-3.43C86.32-3.20 86.51-2.84 86.51-2.35C86.51-1.82 86.32-1.42 85.94-1.17C85.57-0.92 85.04-0.79 84.36-0.79ZM89.05-7.87L89.05 0L93.49 0L93.49-0.85L90.05-0.85L90.05-7.87ZM97.48 0.14C97.97 0.14 98.43 0.05 98.84-0.14C99.25-0.34 99.61-0.61 99.91-0.97C100.21-1.32 100.44-1.75 100.60-2.26C100.77-2.77 100.85-3.34 100.85-3.97C100.85-4.60 100.77-5.16 100.60-5.66C100.44-6.16 100.21-6.58 99.91-6.93C99.61-7.28 99.25-7.55 98.84-7.73C98.43-7.92 97.97-8.02 97.48-8.02C96.98-8.02 96.53-7.92 96.11-7.74C95.70-7.56 95.35-7.29 95.05-6.94C94.76-6.59 94.53-6.17 94.36-5.67C94.20-5.17 94.12-4.60 94.12-3.97C94.12-3.34 94.20-2.77 94.36-2.26C94.53-1.75 94.76-1.32 95.05-0.97C95.35-0.61 95.70-0.34 96.11-0.14C96.53 0.05 96.98 0.14 97.48 0.14ZM97.48-0.73C97.12-0.73 96.81-0.81 96.52-0.96C96.24-1.11 95.99-1.33 95.79-1.61C95.59-1.90 95.43-2.24 95.32-2.63C95.20-3.03 95.15-3.48 95.15-3.97C95.15-4.46 95.20-4.90 95.32-5.29C95.43-5.68 95.59-6.02 95.79-6.29C95.99-6.56 96.24-6.77 96.52-6.92C96.81-7.07 97.12-7.14 97.48-7.14C97.83-7.14 98.15-7.07 98.43-6.92C98.71-6.77 98.96-6.56 99.16-6.29C99.37-6.02 99.52-5.68 99.64-5.29C99.75-4.90 99.80-4.46 99.80-3.97C99.80-3.48 99.75-3.03 99.64-2.63C99.52-2.24 99.37-1.90 99.16-1.61C98.96-1.33 98.71-1.11 98.43-0.96C98.15-0.81 97.83-0.73 97.48-0.73ZM102.08-3.94C102.08-3.30 102.17-2.72 102.35-2.21C102.52-1.71 102.77-1.28 103.08-0.93C103.39-0.58 103.76-0.32 104.20-0.13C104.63 0.05 105.10 0.14 105.62 0.14C106.15 0.14 106.63 0.06 107.05-0.11C107.47-0.29 107.80-0.50 108.06-0.77L108.06-4.08L105.48-4.08L105.48-3.25L107.15-3.25L107.15-1.20C106.99-1.06 106.78-0.94 106.53-0.86C106.28-0.77 106.01-0.73 105.73-0.73C105.31-0.73 104.93-0.81 104.61-0.96C104.29-1.11 104.01-1.33 103.79-1.61C103.57-1.89 103.41-2.23 103.29-2.62C103.17-3.02 103.12-3.46 103.12-3.96C103.12-4.45 103.18-4.89 103.30-5.28C103.43-5.67 103.60-6.01 103.82-6.28C104.05-6.56 104.32-6.77 104.64-6.92C104.96-7.07 105.32-7.14 105.72-7.14C106.12-7.14 106.45-7.07 106.71-6.93C106.97-6.79 107.20-6.62 107.40-6.41L107.96-7.04C107.73-7.28 107.43-7.51 107.07-7.71C106.71-7.91 106.25-8.02 105.71-8.02C105.18-8.02 104.70-7.92 104.26-7.73C103.82-7.55 103.43-7.28 103.11-6.92C102.79-6.57 102.53-6.14 102.35-5.64C102.17-5.14 102.08-4.57 102.08-3.94ZM109.49-3.94C109.49-3.30 109.58-2.72 109.75-2.21C109.93-1.71 110.17-1.28 110.48-0.93C110.80-0.58 111.17-0.32 111.60-0.13C112.03 0.05 112.51 0.14 113.03 0.14C113.56 0.14 114.03 0.06 114.45-0.11C114.87-0.29 115.21-0.50 115.46-0.77L115.46-4.08L112.88-4.08L112.88-3.25L114.55-3.25L114.55-1.20C114.39-1.06 114.19-0.94 113.93-0.86C113.68-0.77 113.42-0.73 113.14-0.73C112.71-0.73 112.34-0.81 112.01-0.96C111.69-1.11 111.42-1.33 111.20-1.61C110.98-1.89 110.81-2.23 110.69-2.62C110.58-3.02 110.52-3.46 110.52-3.96C110.52-4.45 110.58-4.89 110.71-5.28C110.83-5.67 111.00-6.01 111.23-6.28C111.45-6.56 111.72-6.77 112.04-6.92C112.36-7.07 112.72-7.14 113.12-7.14C113.52-7.14 113.85-7.07 114.11-6.93C114.37-6.79 114.60-6.62 114.80-6.41L115.37-7.04C115.14-7.28 114.84-7.51 114.47-7.71C114.11-7.91 113.66-8.02 113.11-8.02C112.58-8.02 112.10-7.92 111.66-7.73C111.22-7.55 110.84-7.28 110.51-6.92C110.19-6.57 109.94-6.14 109.76-5.64C109.58-5.14 109.49-4.57 109.49-3.94ZM117.35-7.87L117.35 0L122.00 0L122.00-0.85L118.34-0.85L118.34-3.71L121.33-3.71L121.33-4.56L118.34-4.56L118.34-7.03L121.88-7.03L121.88-7.87ZM124.67-4.14L124.67-7.07L125.99-7.07C126.60-7.07 127.08-6.96 127.40-6.76C127.73-6.55 127.90-6.18 127.90-5.66C127.90-5.15 127.73-4.77 127.40-4.52C127.08-4.27 126.60-4.14 125.99-4.14ZM127.99 0L129.12 0L127.13-3.43C127.66-3.57 128.09-3.82 128.41-4.19C128.73-4.56 128.89-5.05 128.89-5.66C128.89-6.07 128.82-6.42 128.69-6.70C128.55-6.98 128.36-7.20 128.12-7.38C127.87-7.56 127.58-7.68 127.24-7.76C126.90-7.83 126.53-7.87 126.13-7.87L123.67-7.87L123.67 0L124.67 0L124.67-3.32L126.10-3.32ZM130.50-1.72L129.90-1.02C130.24-0.66 130.65-0.38 131.12-0.17C131.60 0.04 132.11 0.14 132.66 0.14C133.08 0.14 133.45 0.09 133.78-0.03C134.10-0.15 134.38-0.31 134.62-0.51C134.85-0.71 135.03-0.95 135.15-1.22C135.27-1.50 135.34-1.79 135.34-2.10C135.34-2.39 135.29-2.64 135.21-2.86C135.13-3.08 135.01-3.27 134.87-3.44C134.72-3.60 134.55-3.75 134.35-3.87C134.15-3.99 133.94-4.10 133.72-4.20L132.60-4.68C132.44-4.74 132.28-4.81 132.13-4.89C131.98-4.97 131.84-5.05 131.71-5.15C131.58-5.25 131.48-5.37 131.41-5.50C131.33-5.63 131.29-5.80 131.29-5.99C131.29-6.35 131.43-6.63 131.69-6.83C131.96-7.04 132.32-7.14 132.76-7.14C133.12-7.14 133.45-7.07 133.75-6.94C134.04-6.81 134.30-6.63 134.54-6.40L135.08-7.04C134.80-7.33 134.46-7.57 134.06-7.75C133.66-7.93 133.23-8.02 132.76-8.02C132.40-8.02 132.07-7.96 131.77-7.86C131.47-7.76 131.21-7.61 130.99-7.42C130.77-7.23 130.59-7.01 130.47-6.76C130.35-6.50 130.28-6.22 130.28-5.93C130.28-5.64 130.33-5.39 130.43-5.17C130.52-4.95 130.65-4.76 130.80-4.60C130.95-4.44 131.12-4.30 131.32-4.19C131.51-4.08 131.70-3.98 131.88-3.90L133.01-3.41C133.19-3.32 133.36-3.24 133.52-3.16C133.68-3.08 133.82-2.99 133.94-2.89C134.05-2.79 134.15-2.67 134.21-2.53C134.28-2.39 134.32-2.22 134.32-2.02C134.32-1.63 134.17-1.32 133.88-1.09C133.60-0.85 133.19-0.73 132.67-0.73C132.26-0.73 131.87-0.82 131.49-1.00C131.11-1.18 130.78-1.42 130.50-1.72ZM137.06-6.91L137.20-2.38L137.88-2.38L138.01-6.91L138.04-8.04L137.04-8.04ZM136.82-0.60C136.82-0.38 136.89-0.21 137.03-0.07C137.17 0.07 137.34 0.14 137.54 0.14C137.74 0.14 137.90 0.07 138.04-0.07C138.18-0.21 138.25-0.38 138.25-0.60C138.25-0.83 138.18-1.02 138.04-1.16C137.90-1.30 137.74-1.37 137.54-1.37C137.34-1.37 137.17-1.30 137.03-1.16C136.89-1.02 136.82-0.83 136.82-0.60Z"
            transform="translate(-1.08, 8.040000000000001)">
          </path>
        </g>
      </g>
    </g>
  </g>
  <defs v-gra="od">
  </defs>
</svg>