<svg fill="red" xmlns="http://www.w3.org/2000/svg" viewBox="0.06898999999999988 -0.050000000000000044 74.94245 84.5">
  <path
    d="M28.5 26.7c8-4.6 12.4-13 12.2-21.6-.1-4.2-6.5-4.2-6.5 0-.1 8.6 4.2 17 12.2 21.6 8 4.6 17.6 4.2 25-.3 3.5-2.2.4-7.6-3.3-5.7-7.6 4.2-12.7 12.3-12.7 21.5 0 9.3 5.2 17.3 12.8 21.5 3.6 2 6.8-3.5 3.3-5.7-7.4-4.5-17-5-25-.3-8 4.6-12.4 13-12.2 21.6.1 4.2 6.5 4.2 6.5 0 .1-8.6-4.2-17-12.2-21.6-8-4.6-17.6-4.2-25 .3-3.5 2.2-.4 7.6 3.3 5.7 7.6-4.1 12.8-12.2 12.8-21.5S14.5 24.9 6.9 20.7c-3.6-2-6.8 3.5-3.3 5.7 7.3 4.5 16.9 5 24.9.3z"
    fill="none" stroke="#fff" stroke-width="4" stroke-miterlimit="10">
  </path>
</svg>